<svg xmlns="http://www.w3.org/2000/svg" version="1.1" xmlns:xlink="http://www.w3.org/1999/xlink" xmlns:svgjs="http://svgjs.com/svgjs" width="2551.2" height="1984.3"><svg version="1.1" id="SvgjsSvg1144" xmlns="http://www.w3.org/2000/svg" xmlns:xlink="http://www.w3.org/1999/xlink" x="0px" y="0px" viewBox="0 0 2551.2 1984.3" style="enable-background:new 0 0 2551.2 1984.3;" xml:space="preserve">
<style type="text/css">
	.st0{fill:#FFFFFF;stroke:#000000;stroke-miterlimit:10;}
	.st1{fill:#EB5F0A;}
	.st2{font-family:'MyriadPro-Regular';}
	.st3{font-size:77.8446px;}
	.st4{letter-spacing:27;}
	.st5{font-size:170.7308px;}
	.st6{letter-spacing:16;}
	.st7{fill:#074670;}
	.st8{fill:#FFED00;stroke:#000000;stroke-width:3.1274;stroke-miterlimit:10;}
	.st9{fill:none;stroke:#000000;stroke-width:3.1274;stroke-miterlimit:10;}
	.st10{fill:#F6E500;stroke:#000000;stroke-width:3.1274;stroke-miterlimit:10;}
	.st11{clip-path:url(#XMLID_81_);fill:#F6E500;}
	.st12{clip-path:url(#XMLID_81_);fill:#074670;}
	.st13{clip-path:url(#XMLID_81_);fill:#EB5D27;stroke:#000000;stroke-width:2;stroke-miterlimit:10;}
	.st14{clip-path:url(#XMLID_81_);}
	.st15{fill:#EB5F0A;stroke:#074670;stroke-width:0.987;stroke-miterlimit:10;}
</style>
<rect id="SvgjsRect1143" x="-119.7" class="st0" width="2551.2" height="1984.3"></rect>
<g id="SvgjsG1142">
	<text transform="matrix(1 0 0 1 891.521 1678.8013)" class="st1 st2 st3 st4" svgjs:data="{&quot;leading&quot;:&quot;1.3&quot;}">VIlle</text>
</g>
<g id="SvgjsG1141">
	<text transform="matrix(1 0 0 1 1374.7129 1680.437)" class="st1 st2 st3 st4" svgjs:data="{&quot;leading&quot;:&quot;1.3&quot;}">city</text>
</g>
<g id="SvgjsG1140">
	<text transform="matrix(1 0 0 1 902.605 1816.6899)" class="st1 st2 st5 st6" svgjs:data="{&quot;leading&quot;:&quot;1.3&quot;}">DOUALA</text>
</g>
<g id="SvgjsG1139">
	<g id="SvgjsG1138">
		<path id="SvgjsPath1137" class="st7" d="M1093.4,1569c-2,0.3-5.8-0.1-10.1-1.8c-10-4-14.7-13.9-9.5-26.9
			c4.9-12.4,15.7-17.7,26.7-13.4c4.4,1.7,6.8,3.9,7.7,5.1l-2.8,3.7c-1.3-1.6-3.5-3.3-6.5-4.4c-8.3-3.3-16.2,0.4-20.3,10.8
			c-3.8,9.7-1.3,17.8,7.3,21.2c2.8,1.1,5.9,1.6,8.2,1.3L1093.4,1569z"></path>
		<path id="SvgjsPath1136" class="st7" d="M1133.5,1538.4l-6.2,24.4c-2.3,9.1,0.3,14,5.3,15.2c5.4,1.4,10-1.7,12.3-10.8l6.2-24.4
			l4.8,1.2l-6.1,24c-3.2,12.6-10.5,16.2-18.5,14.2c-7.6-1.9-12.1-8.1-8.8-20.9l6.2-24.2L1133.5,1538.4z"></path>
		<path id="SvgjsPath1135" class="st7" d="M1179,1549.2c3-0.2,6.6-0.1,10.5,0.4c7,0.9,11.8,3.4,14.6,7.2c3,3.9,4.3,9,3.4,15.8
			c-0.9,6.9-3.6,12.2-7.6,15.6c-4.1,3.5-10.2,4.8-17.6,3.9c-3.5-0.5-6.4-1-8.8-1.6L1179,1549.2z M1179.1,1587c1.2,0.3,3,0.6,4.9,0.9
			c10.5,1.4,16.9-4.4,18.4-15.8c1.3-9.9-2.9-16.9-13.2-18.2c-2.5-0.3-4.5-0.3-5.8-0.2L1179.1,1587z"></path>
		<path id="SvgjsPath1134" class="st7" d="M1271.8,1572.5l0.1,4l-14,0.4l-0.1-4L1271.8,1572.5z"></path>
		<path id="SvgjsPath1133" class="st7" d="M1321.4,1550.1c2.9-1,6.4-1.8,10.2-2.4c7-1,12.2,0.2,16,3.1c3.9,3,6.5,7.5,7.5,14.3
			c1,6.9-0.2,12.7-3.2,17.1c-3,4.4-8.6,7.4-15.9,8.4c-3.5,0.5-6.4,0.7-8.9,0.7L1321.4,1550.1z M1331.4,1586.5c1.3,0,3.1-0.2,5-0.4
			c10.5-1.5,15.2-8.7,13.6-20.1c-1.3-9.9-7.3-15.5-17.6-14.1c-2.5,0.4-4.4,0.9-5.6,1.4L1331.4,1586.5z"></path>
		<path id="SvgjsPath1132" class="st7" d="M1408.5,1576.2c-1.5,1.3-4.9,3.1-9.5,4c-10.5,2.1-19.9-3.6-22.7-17.3
			c-2.7-13.1,3.5-23.4,15.1-25.8c4.6-0.9,7.8-0.4,9.2,0l-0.3,4.6c-2-0.6-4.7-0.8-7.8-0.2c-8.8,1.8-13.3,9.2-11.1,20.1
			c2.1,10.2,8.7,15.6,17.7,13.8c3-0.6,5.8-1.9,7.6-3.3L1408.5,1576.2z"></path>
		<path id="SvgjsPath1131" class="st7" d="M1457.2,1563.6c-1.4,1.4-4.7,3.4-9.2,4.6c-10.4,2.9-20.1-2.3-23.8-15.8
			c-3.5-12.9,1.9-23.6,13.3-26.8c4.5-1.2,7.8-1,9.2-0.6l0,4.6c-2-0.5-4.8-0.5-7.8,0.3c-8.6,2.4-12.7,10.1-9.7,20.8
			c2.8,10.1,9.7,15,18.6,12.6c2.9-0.8,5.7-2.3,7.3-3.8L1457.2,1563.6z"></path>
	</g>
</g>
<path id="SvgjsPath1130" class="st8" d="M974.1,488.2l-47.3-147.9l39-33.1l17.7,44.9c0,0,263.8-89.9,577.2,1.2l14.2-39l36.7,31.9
	l-46.1,141.9C1565.5,488.2,1254.4,400.7,974.1,488.2z"></path>
<path id="SvgjsPath1129" class="st9" d="M1534.4,480.6c2.1-68.5,52.9-71,52.9-71c-316.4-127.2-631-4.7-631-4.7l-1.4,0.6
	c0,0,56.3,0.3,54.9,72.6"></path>
<path id="SvgjsPath1128" class="st9" d="M1183.4,403.7c0,0-120.6,2.7-184.2,30.3"></path>
<line id="SvgjsLine1127" class="st9" x1="1162.2" y1="452.9" x2="1149.1" y2="405.4"></line>
<line id="SvgjsLine1126" class="st9" x1="1080.2" y1="463.1" x2="1080.2" y2="413.1"></line>
<line id="SvgjsLine1125" class="st9" x1="1032.1" y1="382" x2="1038" y2="421.4"></line>
<line id="SvgjsLine1124" class="st9" x1="1108.9" y1="366" x2="1114.4" y2="408.6"></line>
<line id="SvgjsLine1123" class="st9" x1="1384.4" y1="456.4" x2="1386.9" y2="408.6"></line>
<line id="SvgjsLine1122" class="st9" x1="1459" y1="466.2" x2="1470.3" y2="421.4"></line>
<line id="SvgjsLine1121" class="st9" x1="1515.2" y1="382" x2="1506.3" y2="425.5"></line>
<line id="SvgjsLine1120" class="st9" x1="1437.5" y1="366.3" x2="1430.6" y2="413.1"></line>
<path id="SvgjsPath1119" class="st9" d="M1359.7,405.4c0,0,148.8,16.2,185.3,32.6"></path>
<path id="SvgjsPath1118" class="st9" d="M1318.3,352.8c0,0,60.9,20.5,36.6,100.1"></path>
<path id="SvgjsPath1117" class="st9" d="M1211.9,353.9c0,0-46,31.5-21.9,97.1"></path>
<path id="SvgjsPath1116" class="st8" d="M991.2,501.8c0,0,308.8-89.9,553.7,0C1545,501.8,1257.1,591.1,991.2,501.8z"></path>
<polyline id="SvgjsPolyline1115" class="st9" points="1087.9,325.2 1027.6,293.4 1025.7,254.1 "></polyline>
<g id="SvgjsG1114">
	<polygon id="SvgjsPolygon1113" class="st10" points="939.5,243.1 1027.6,293.4 1030.5,339.4 1087.7,327.8 1089.7,297.5 1318.3,150.5 
		1053.6,256.1 	"></polygon>
	<polyline id="SvgjsPolyline1112" class="st9" points="1232.8,205.5 1213.4,195.2 1210.3,220 1177.8,207.8 1169.6,246.1 1127.6,228.2 
		1121.9,273.3 1054.8,257.9 1060.7,331.5 	"></polyline>
	<polyline id="SvgjsPolyline1111" class="st9" points="944.8,245 1089.7,297.5 1089.9,243.6 1146.4,261.1 1155.6,216.8 1189.6,233.3 
		1197.4,201.4 1221.5,212.8 1226.1,188.1 	"></polyline>
	<line id="SvgjsLine1110" class="st10" x1="1032.1" y1="336.8" x2="1087.9" y2="297.5"></line>
	<line id="SvgjsLine1109" class="st9" x1="1302.4" y1="157" x2="1027.6" y2="293.4"></line>
</g>
<polyline id="SvgjsPolyline1108" class="st9" points="1463.2,325.2 1523.5,293.4 1525.5,254.1 "></polyline>
<g id="SvgjsG1107">
	<polygon id="SvgjsPolygon1106" class="st10" points="1611.6,243.1 1523.5,293.4 1520.6,339.4 1463.4,327.8 1461.4,297.5 1232.8,150.5 
		1497.5,256.1 	"></polygon>
	<polyline id="SvgjsPolyline1105" class="st9" points="1318.3,205.5 1337.7,195.2 1340.8,220 1373.4,207.8 1381.5,246.1 1423.5,228.2 
		1429.2,273.3 1496.3,257.9 1490.4,331.5 	"></polyline>
	<polyline id="SvgjsPolyline1104" class="st9" points="1606.3,245 1461.4,297.5 1461.2,243.6 1404.7,261.1 1395.5,216.8 1361.5,233.3 
		1353.7,201.4 1329.7,212.8 1325,188.1 	"></polyline>
	<line id="SvgjsLine1103" class="st10" x1="1519" y1="336.8" x2="1463.2" y2="297.5"></line>
	<line id="SvgjsLine1102" class="st9" x1="1248.8" y1="157" x2="1523.5" y2="293.4"></line>
</g>
<g id="SvgjsG1101">
	<defs>
		<path id="SvgjsPath1100" d="M1659.3,571.3L1659.3,571.3c0.1,19,1.4,539.1,1.4,539.2c0,233.8-175.6,423.9-391.4,423.9
			c-215.8,0-391.4-190.2-391.4-423.9c0,0,2.6-520.2,2.7-539.2C896.6,571.3,1643.3,571.3,1659.3,571.3L1659.3,571.3z"></path>
	</defs>
	<clipPath id="SvgjsClipPath1099">
		<use xlink:href="#XMLID_738_" style="overflow:visible;"></use>
	</clipPath>
	<path id="SvgjsPath1098" class="st11" d="M1023.1,1041.1c75.6,23.1,103.3,2.2,171.7-13.6c91.6-21.2,120.4-6.5,168.2,1.6
		c13.4,2.3,77.9,37.3,147.7,0c42-22.4,85.8-20.3,154.4,1.1c-0.4-151.1-1.2-464.4-1.2-464.4H876.1l-2.4,480.2
		C901,1038.1,965.4,1023.5,1023.1,1041.1L1023.1,1041.1z"></path>
	<path id="SvgjsPath1097" class="st12" d="M1510.7,1029.2c-69.8,37.3-134.3,2.3-147.7,0c-47.9-8.2-76.6-22.8-168.2-1.6
		c-68.4,15.8-96.1,36.7-171.7,13.6c-57.7-17.6-122.1-3-149.4,5l-0.3,63.8c0,237.4,177.3,429.8,396,429.8
		c218.7,0,396-192.4,396-429.8c0-0.3-0.1-31.9-0.2-79.6C1596.5,1008.9,1552.7,1006.8,1510.7,1029.2L1510.7,1029.2z"></path>
	<polygon id="SvgjsPolygon1096" class="st13" points="1587.4,623 1330.9,746.4 1328.7,825.4 1409.8,849.2 1587.4,623 	"></polygon>
	<polygon id="SvgjsPolygon1095" class="st13" points="1532.6,668.7 1084,983.5 1107.3,1017.8 1532.6,668.7 	"></polygon>
	<polygon id="SvgjsPolygon1094" class="st13" points="952.7,623 1209.1,746.4 1211.3,825.4 1130.3,849.2 952.7,623 	"></polygon>
	<polygon id="SvgjsPolygon1093" class="st13" points="1011.5,671.9 1456,983.5 1432.8,1017.8 1011.5,671.9 	"></polygon>
	<g id="SvgjsG1092" class="st14">
		<g id="SvgjsG1091">
			<g id="SvgjsG1090">
				<g id="SvgjsG1089">
					<path id="SvgjsPath1088" class="st15" d="M1346.4,1248.1v16c0,0-25.4,3.1-35-16c0,0-2.8-11.5,0-16.5c2.8-4.9,6.6-2.1,13.4,4.2
						C1331.5,1242.2,1344,1247.4,1346.4,1248.1z"></path>
					<path id="SvgjsPath1087" class="st15" d="M1361.4,1226.9c0,0-9.6,8.7-11.8,9.4c-2.1,0.7-13.2-5-18.3-7.2
						c-5.2-2.2-4.9-10.4,1.2-14.2c6.1-3.8,11.3-3.1,18.8,2.6C1358.8,1223.1,1363.3,1225.2,1361.4,1226.9z"></path>
					<path id="SvgjsPath1086" class="st15" d="M1372.2,1236.4c0,0-1.4,23.5-1.9,25.6c-0.5,2.1-9.2,2.2-15.3,2.3s-8.2-0.4-7.9-7.4
						s0.8-16.1,2.2-18.1s11.8-12,14-12.5C1365.6,1225.8,1371.4,1233.8,1372.2,1236.4z"></path>
					<path id="SvgjsPath1085" class="st15" d="M1380.2,1237.8c0,0-4.7,0.8-6.5,1.4c-1.7,0.6-1.5,5.8-1.5,11.2c0,5.4,0.2,12.5,2.4,12.5
						c2.1,0,26.3-4.7,42.8-22.2c0.6-3.1-1.3-5.4-4.9-9.6s-5.8-6-9.8-3.3C1398.7,1230.4,1392.8,1234.1,1380.2,1237.8z"></path>
					<path id="SvgjsPath1084" class="st15" d="M1432.2,1225.2c0,0-5.6,8.6-8.3,9.7c-2.7,1.1-5.8,1.4-10.3-3.9s-5.8-6.6-3.1-10.7
						c2.7-4.1,13.8-16.6,14.1-28.1c-0.6-1.6,1.9-2.8,6.7-3.1c4.9-0.3,15.5,0.8,11.4,13.3S1436,1218.3,1432.2,1225.2z"></path>
					<path id="SvgjsPath1083" class="st15" d="M1447.1,1136.1c0,0,0.2,17.7,0,21c-0.2,3.3-5.6-0.5-10.2-3s-12.5-4.2-14.7-4.2
						s-1.1-5.3-1.1-7.2s14-5.3,19.1-6.6C1445.4,1134.8,1447.1,1133.1,1447.1,1136.1z"></path>
					<path id="SvgjsPath1082" class="st15" d="M1446.2,1114c0,0,1.2,14.7,1,16.2c-0.2,1.4-19,8.6-27.7,11.3c-6,1.4-7.2,1.1-11.9-3
						s-9.1-7.5-5.5-10.4c3.6-2.8,31.5-21.2,35.9-23.2C1442.4,1102.9,1445.5,1104.9,1446.2,1114z"></path>
					<path id="SvgjsPath1081" class="st15" d="M1435,1092c0,0,4.7,6.4,4.2,8.5c-0.5,2-3,3-12.9,8.9s-21.5,13.3-25.6,15.2
						c-4,1.9-5.3,0.9-7.3-2.7s-4.2-18.7-4.5-33.1c0.2-3.8,5.6-7.2,9.1-1.6c3.4,5.6,12.7,17.4,16.1,19.1c3.4,1.7,0.7-8.5,0.7-14.4
						c0-6-2.2-16,0-16.6S1422.5,1077.6,1435,1092z"></path>
					<path id="SvgjsPath1080" class="st15" d="M1442.2,1160.4c0,0,2.6,11.1,1.4,18.3s-1.5,9.6-8,9.3c-6.4-0.3-12.2,1.4-21.5,7.7
						c-9.3,6.3-11.1,6.6-13.3,2.5c-2.3-4.1-2.9-8.1,3.4-9.1c6.3-1.1,6-5.8,2.5-6.4c-3.4-0.6-20.4-0.9-26.7-0.9
						c-6.3,0-8.5-2.8-9.4-9.9s-6-11.6-2.7-14.6c3.3-3,25.3-8.2,41.1-7.1S1440,1155.5,1442.2,1160.4z"></path>
					<path id="SvgjsPath1079" class="st15" d="M1492.6,1181.3c0,0,1.6,22.1,0,28.7c-1.6,6.6-3.6,5.3-4.7,8.8c-1.1,3.4-1.1,5-3.4,5.2
						c-2.4,0.2-11.3-15.1-23.1-23c-11.8-7.9-16.9-8.3-16.5-15.1c0.5-6.7-1.5-21.8,2.3-22.9c3.8-1.1,19.3-0.8,27.2,3.1
						C1482.2,1170,1491,1178,1492.6,1181.3z"></path>
					<path id="SvgjsPath1078" class="st15" d="M1476.9,1238c0,0-4.7-3-10.5-6.1c-5.8-3.1-13.8-8-14.7-12.5c-0.9-4.5,5-11,6.7-12.9
						c1.7-1.9,7.2,1.7,14.7,10.5c7.5,8.8,19,23.7,25.1,37.6s9.1,18.3,5,21c-4.1,2.7-11.1,0.6-16.3-3.3c-5.2-3.9-9.9-7.4-9.4-18.3
						C1478,1243,1478.8,1239.2,1476.9,1238z"></path>
					<path id="SvgjsPath1077" class="st15" d="M1517,1202c0,0,7.7,13.6,7.8,23.2c0.2,9.6-1.3,10.8-6.6,23.5c-5.3,12.7-7.4,17.2-9.4,18
						c-2,0.8-5-1.4-8.3-10.2c-3.3-8.8-8.2-18.8-11.4-23.1c-3.3-4.2-0.3-8,2.8-14.4c3.1-6.4,2.4-21.8,2.5-28.4c0.2-6.6,4-6,7.5-4.1
						C1505.1,1188.3,1511.4,1193.1,1517,1202z"></path>
					<path id="SvgjsPath1076" class="st15" d="M1538.1,1238.5c0,0,7.4,9.3,7.8,16.5c0.5,7.2-3.6,20.5-4.7,30.4
						c-1.1,9.9-3.3,16.3-8.2,21.6c-4.9,5.3-13.3,6.7-17.6,8.6s-4.9-4.9-4.7-9.4c0.2-4.5,0.9-16-1.1-23.5c-2-7.5-3.9-10.2,0.9-14.9
						c4.9-4.7,12.2-21.5,13.6-25.2C1525.7,1238.8,1527.5,1224.9,1538.1,1238.5z"></path>
					<path id="SvgjsPath1075" class="st15" d="M1545.1,1307c0,0,7.1,16.2,5.3,22.3c-1.7,6.1-7.1,8.8-14.6,17.6
						c-7.5,8.8-16.3,15.2-18,18.5c-1.7,3.3-0.5,7.2,0,9.9c0.5,2.7,1.9,6.6-6.9,13.5c-8.8,6.9-20.5,9.4-24.1,11.6s-2.7,6.3-8.3,12.7
						s-20.5,6.7-29,6.4s-6.1-2.8-10.7,4.5c-4.5,7.4-6.7,10.3-16.2,9.1c-9.4-1.3-11.1-6.3-14.9-12.1c-3.8-5.8,1.4-6.6,9.7-7.4
						s11-3.6,19.8-5.3c8.8-1.7,19.8-5.5,32.8-13.6c13-8.2,25.6-22.9,32.3-40.6s6.1-29.3,11.1-32.6s16.8-9.7,22.1-13.3
						S1542.3,1304.4,1545.1,1307z"></path>
					<path id="SvgjsPath1074" class="st15" d="M1493.8,1316c0,0-0.2-7.7,4.5-8.5s10.8-0.9,10.2,7.7c-0.6,8.6-5.2,38.7-24.5,61.8
						c-10.2,11.9-19.1,20.3-33.9,26c-6.4,2.4-9.7,2.8-7.8-1.3c1.9-4.1,11-14.9,15.5-17.9c4.5-3,1.7-5.2,3.3-11
						c1.6-5.8,8.1-8.6,14-9.6c5.9-0.9,6.8-3.3,7.1-10.2c0.3-6.9,1.7-10.8,6.6-15.8C1493.8,1332.3,1493.6,1318.6,1493.8,1316z"></path>
					<path id="SvgjsPath1073" class="st15" d="M1502.9,1280c0,0,5.4,1.9,5.7,4.4c0.3,2.5,1,16.6,0,18.5c-1,1.9-7.3-0.8-9-1.4
						c-1.7-0.6-6.4-3.9-8.2-5s-2-7.2-2.2-12.2c-0.2-5,3.8-7.8,7.8-5.8C1501.2,1280.5,1502.9,1280,1502.9,1280z"></path>
					<path id="SvgjsPath1072" class="st15" d="M1395.7,1420.1c0,0-7.7,10-12.7,14.4c-5,4.4-11.6,0.3-15.4-5.8c-3.8-6.1-6.6-9.9-1.9-14
						c4.7-4.1,6.6-9.1,9.4-6.6s6,7.2,12.7,7.7C1394.6,1416.3,1397.8,1417.4,1395.7,1420.1z"></path>
					<path id="SvgjsPath1071" class="st15" d="M1358.3,1415.5c0,0-12.5-5.2-7.8-8.8s6-5.3,5.3-9.9c-0.6-4.5,4.7-6.4,8.6-2.5
						s6.9,7.5,6.6,10.4c-0.3,2.9-3.1,1.8-4.2,5.9C1365.7,1414.7,1360.8,1416.7,1358.3,1415.5z"></path>
					<path id="SvgjsPath1070" class="st15" d="M1392.2,1401c0,0-0.5,2.5,4.4,6.5c4.9,4,2.8,5.3,2,7.3c-0.9,2-7.8,0.4-11.4-1.4
						s-17.8-15.1-21.1-21.2c-3.3-6.1-5.1-11.7,1.8-18.1c6.8-6.4,17.4-4.7,18.5-1.5c1.1,3.2,0.4,12.6,2.2,18.5
						S1392.2,1401,1392.2,1401z"></path>
					<path id="SvgjsPath1069" class="st15" d="M1411.5,1393.7c0,0,1.5,10.7,0,15.6c-1.5,4.9-6,5.2-7.4,5.4c-1.4,0.2-3.1-2.7-7.8-11.9
						c-4.7-9.2-8.1-17.9-8.1-25.8c0-7.9,4.9-10.7,8.1-10.5C1399.5,1366.8,1407.4,1370.3,1411.5,1393.7z"></path>
				</g>
			</g>
		</g>
		<g id="SvgjsG1068">
			<g id="SvgjsG1067">
				<path id="SvgjsPath1066" class="st15" d="M1342.3,1266.6c-8.1,0-25.2-1.9-33.1-17.5c-0.5-1.8-3.2-13.1,0.1-18.7
					c1.2-2.1,2.8-3.4,4.6-3.6c3.6-0.7,7.3,2.5,12.4,7.3c6.5,6,18.6,11.1,20.7,11.7l1.7,0.5v19.9l-2.1,0.3
					C1346.4,1266.5,1344.8,1266.6,1342.3,1266.6z"></path>
				<path id="SvgjsPath1065" class="st15" d="M1349.2,1238.7c-2.2,0-6-1.5-13.8-5.2c-1.9-0.9-3.7-1.7-5-2.3c-2.9-1.3-4.8-4-5.1-7.4
					c-0.3-4.3,2-8.6,6-11c6.9-4.3,13.2-3.5,21.5,2.7c1.9,1.4,3.6,2.7,5.1,3.7c4.2,2.9,6.2,4.4,6.4,6.6c0.1,1-0.4,2-1.2,2.8
					c-3.7,3.4-10.3,9.2-12.6,9.9C1350.1,1238.7,1349.7,1238.7,1349.2,1238.7z"></path>
				<path id="SvgjsPath1064" class="st15" d="M1354.2,1266.6c-3.2,0-5.8-0.2-7.6-2.1c-1.9-1.9-2-5-1.8-7.8c0.6-11.6,1.1-17.2,2.7-19.4
					c1.2-1.7,12.1-12.7,15.4-13.4c4.7-1.2,10.9,9.6,11.6,11.7l0.1,0.4l0,0.4c-0.2,4-1.4,23.8-1.9,26c-0.8,3.4-5.8,4.1-17.6,4.1
					C1354.8,1266.6,1354.5,1266.6,1354.2,1266.6z"></path>
				<path id="SvgjsPath1063" class="st15" d="M1374.6,1265.3c-4.4,0-4.7-6.7-4.7-14.9v-1.6c0-6.2,0-10.8,3.2-11.8
					c1.7-0.6,5.8-1.3,6.6-1.5c13-3.9,18.6-7.7,21.7-9.8c6.1-4.2,9.9,0.2,12.9,3.7c3.7,4.3,6.3,7.3,5.5,11.6l-0.1,0.7l-0.5,0.5
					C1402.1,1260.4,1377.3,1265.3,1374.6,1265.3z"></path>
				<path id="SvgjsPath1062" class="st15" d="M1420.9,1237.9c-3.1,0-6.1-1.8-9.2-5.4l-0.4-0.5c-4.3-5.1-6.5-7.6-2.9-13.1
					c0.5-0.7,1.3-1.7,2.2-3c3.9-5.2,11.1-14.9,11.6-23.5c-0.2-0.9,0-1.8,0.5-2.6c1.1-1.8,3.9-2.9,8.5-3.2c2.8-0.2,9.4-0.1,12.9,4.4
					c2.3,3,2.6,7,1,12.1c-3.3,10.3-5.8,14.5-8.6,19.4c-0.7,1.2-1.4,2.4-2.1,3.8l-0.1,0.2c-1.8,2.8-6.4,9.4-9.4,10.6
					C1423.5,1237.6,1422.2,1237.9,1420.9,1237.9z"></path>
				<path id="SvgjsPath1061" class="st15" d="M1445.9,1160.8c-2.2,0-4.8-1.5-8-3.4l-2.1-1.2c-4.3-2.4-11.9-3.9-13.6-3.9
					c-1,0-1.9-0.4-2.5-1.1c-1.5-1.7-1.3-4.5-1-7.1c0-0.6,0.1-1.1,0.1-1.4c0-2.4,1.4-4.2,21-8.9c1.4-0.3,2.5-0.7,3.4-1
					c1.9-0.6,3.5-1.2,5-0.1c1.4,1,1.4,2.8,1.4,3.4l0,0c0,0.7,0.2,17.8,0,21.1c-0.1,1.9-1.2,2.8-1.8,3.1
					C1447.1,1160.6,1446.5,1160.8,1445.9,1160.8z"></path>
				<path id="SvgjsPath1060" class="st15" d="M1414.7,1144.5c-3.1,0-5.2-1.3-8.7-4.3l-0.7-0.6c-3.7-3.2-7-6-6.9-9.3
					c0-1.1,0.4-2.6,2.2-4.1c3.9-3.1,31.8-21.4,36.4-23.5c2.6-1.2,4.9-1.3,6.9-0.1c2.7,1.6,4.2,5.1,4.6,11.2l0,0
					c0.5,5.6,1.2,15.2,1,16.7c-0.7,4.3-28.1,12.8-29.3,13.2C1418,1144.2,1416.2,1144.5,1414.7,1144.5z"></path>
				<path id="SvgjsPath1059" class="st15" d="M1397.5,1128c-2.7,0-4.4-1.8-6.1-4.8c-2.4-4.2-4.5-19.5-4.9-34.2c0.1-3.2,2.4-6,5.4-6.8
					c3-0.9,6.1,0.6,8.1,3.9c3,4.9,9.7,13.3,13.3,16.8c-0.1-1.3-0.3-2.9-0.4-4.1c-0.3-2.3-0.6-4.8-0.6-6.8c0-2-0.2-4.4-0.5-6.7
					c-0.7-6.7-1.1-11.2,2.2-12.2c2.8-0.8,7.9,0.4,22.7,17.3l0.1,0.2c3.6,4.9,5.1,8.4,4.6,10.4c-0.6,2.6-2.5,3.7-8.4,7.1
					c-1.5,0.9-3.4,2-5.7,3.4c-3.2,1.9-6.7,4-10,6c-7,4.3-13,7.9-15.8,9.3C1400.1,1127.6,1398.7,1128,1397.5,1128z"></path>
				<path id="SvgjsPath1058" class="st15" d="M1404.1,1203.3c-0.4,0-0.8,0-1.2-0.1c-2.1-0.5-3.3-2.2-4.2-3.8c-2-3.6-2.4-6.4-1.3-8.7
					c1-2.1,3.1-3.4,6.4-3.9c2.3-0.4,3-1.3,3-1.5c-3.5-0.8-19.4-1.1-26.7-1.1c-9,0-10.9-5.8-11.8-12c-0.3-2.5-1.3-4.7-2.1-6.7
					c-1.4-3.3-3-7,0.2-9.9c4-3.6,26.5-8.9,42.9-7.7c14.9,1,32.3,5.1,35.2,11.6l0.2,0.4c0.1,0.5,2.7,11.7,1.4,19.3
					c-1.1,6.8-1.9,11.2-9.4,11.2c-0.7,0-1.5-0.1-2.4-0.1c-4.9,0-10,1.4-18.8,7.3C1410,1201.3,1406.7,1203.3,1404.1,1203.3z"></path>
				<path id="SvgjsPath1057" class="st15" d="M1484.4,1226.3c-2.1,0-3.8-2.1-7.7-6.8c-4.2-5.1-10-12.2-16.7-16.6
					c-3.1-2.1-5.8-3.6-7.9-4.9c-6.2-3.7-10-5.9-9.6-12.3c0.1-1.9,0.1-4.5,0-7.3c-0.2-8.8-0.4-16.5,4-17.7c4.2-1.2,20.4-1,28.9,3.3
					c8.1,4.1,17.4,12.4,19.3,16.3l0.2,0.9c0.1,0.9,1.6,22.6-0.1,29.4c-1,4.2-2.2,5.7-3.6,7.2c-0.6,0.6-0.9,0.9-1.2,1.8l-0.4,1.5
					c-0.7,2.5-1.5,5.1-5.1,5.3C1484.5,1226.3,1484.5,1226.3,1484.4,1226.3z"></path>
				<path id="SvgjsPath1056" class="st15" d="M1498.7,1279.2c-4.5,0-9.5-2.2-13.2-5c-5.4-4.1-10.9-8.2-10.3-20.3
					c0.1-2.5,0.2-4.7,0.3-6.5c0.2-3.4,0.4-6.6,0-7.5c-0.7-0.4-5-3.1-10.3-6c-10.1-5.5-15.1-9.8-15.9-14.1
					c-1.1-5.1,3.6-10.9,7.2-14.8c0.9-1,2-1.5,3.2-1.4c3.4,0.1,8.6,4,15.3,11.8c5.4,6.3,18.6,22.5,25.5,38.2c1,2.2,1.8,4.1,2.6,5.9
					c4.4,9.8,6.6,14.7,1.5,18.1C1502.8,1278.8,1500.8,1279.2,1498.7,1279.2z"></path>
				<path id="SvgjsPath1055" class="st15" d="M1508.1,1269.2c-0.7,0-1.4-0.2-2.1-0.4c-2.8-1.2-5.3-5-7.7-11.4
					c-3.4-9-8.1-18.6-11.1-22.4c-3.7-4.7-1.5-9.1,1.1-14.1c0.5-0.9,0.9-1.8,1.4-2.8c2.3-4.7,2.3-15.6,2.3-22.8c0-1.8,0-3.4,0-4.6
					c0.1-3.5,1.1-5.8,3.1-7c2-1.2,4.7-0.9,7.9,0.9c4.2,2.3,10.5,7.7,15.9,16.2l0.1,0.1c0.3,0.6,8,14.3,8.1,24.3
					c0.1,8.5-1,11.1-4.4,19c-0.7,1.6-1.5,3.4-2.4,5.5c-5.9,14.1-7.7,18.2-10.7,19.3C1509.2,1269.1,1508.7,1269.2,1508.1,1269.2z"></path>
				<path id="SvgjsPath1054" class="st15" d="M1514.1,1318.3c-1.2,0-2-0.4-2.5-0.8c-2.3-1.6-3.4-5.4-3.2-11.4l0.1-1.8
					c0.2-5.1,0.6-14.7-1.1-21c-0.3-1.1-0.6-2.1-0.9-3c-1.6-5.4-2.8-9.2,2.4-14.2c4.3-4.1,11.5-20.1,13.1-24.4
					c0.2-0.4,0.3-1.1,0.5-1.7c1-3.5,2.6-8.8,6.9-9.6c3.2-0.6,6.5,1.5,10.5,6.7c0.5,0.6,7.8,10,8.3,17.8c0.3,4.6-1,11.1-2.4,17.9
					c-0.9,4.4-1.8,9-2.3,13c-1.2,10.8-3.7,17.5-8.8,23c-4,4.4-9.7,6.2-14.4,7.8c-1.5,0.5-2.9,0.9-3.9,1.4
					C1515.6,1318.2,1514.8,1318.3,1514.1,1318.3z"></path>
				<path id="SvgjsPath1053" class="st15" d="M1426.3,1435.7c-1.2,0-2.5-0.1-4-0.3c-9.3-1.2-12.2-5.9-15.2-10.9
					c-0.4-0.7-0.9-1.5-1.4-2.2c-0.6-0.9-2.5-3.8-1.2-6.6c1.5-3.2,6-3.8,12.7-4.4c4.3-0.4,6.9-1.4,10-2.5c2.5-0.9,5.4-2,9.5-2.8
					c10.4-2,21.1-6.5,32-13.3c13.4-8.4,25.1-23.2,31.3-39.5c2.9-7.6,4.4-14.1,5.6-19.3c1.7-7.3,2.8-12.1,6.4-14.4
					c2.4-1.6,6.2-3.8,10.2-6.1c4.5-2.6,9.1-5.3,11.9-7.2c5.3-3.6,8.3-4.8,12.5-0.9l0.6,0.8c0.8,1.7,7.3,17.1,5.4,23.9
					c-1.3,4.5-4.2,7.4-7.9,11c-2.1,2-4.5,4.3-7.1,7.5c-3.9,4.5-8.1,8.5-11.5,11.6c-2.9,2.7-5.6,5.2-6.2,6.4c-1.1,2-0.5,4.7,0,7
					l0.3,1.4c0.8,4.3,0.9,9-7.8,15.8c-6.2,4.9-13.6,7.6-19,9.6c-2.4,0.9-4.4,1.6-5.4,2.2c-1.1,0.7-1.5,1.6-2.4,3.6
					c-0.9,2.2-2.3,5.1-5.4,8.6c-4.7,5.4-15.1,7.9-30.9,7.2c-2.4-0.1-3.9-0.3-5-0.5c-0.5-0.1-0.8,0-1.2-0.1c0.1,0.1-0.6,1.2-1.3,2.4
					l-1.1,1.7C1436.7,1431.9,1433.9,1435.7,1426.3,1435.7z"></path>
				<path id="SvgjsPath1052" class="st15" d="M1443.4,1407.2c-1.3,0-2.3-0.4-3-1.2c-1.1-1.2-1.2-3-0.1-5.2c2.1-4.5,11.4-15.6,16.4-18.9
					c1.7-1.1,1.7-1.6,1.7-3.7c0-1.4-0.1-3.4,0.6-5.9c2.2-8.3,11.9-10.6,15.9-11.3c4.1-0.6,4.8-1.3,5.1-8c0.3-7.8,2.2-12.1,7.3-17.4
					c3.5-3.6,3.9-14.1,4.1-18c0-0.7,0-1.3,0.1-1.7c0-3.6,1.3-9.9,6.5-10.7c3.3-0.5,7.5-0.9,10.4,1.7c2,1.8,2.9,4.7,2.6,8.4
					c-1,13.5-7.3,42-25,63.2c-10.7,12.5-19.9,20.9-34.8,26.7C1447.8,1406.4,1445.3,1407.2,1443.4,1407.2z"></path>
				<path id="SvgjsPath1051" class="st15" d="M1507,1306c-2.4,0-5.3-1.1-7.6-2l-0.6-0.2c-1.4-0.5-3.9-2.1-6.9-4.1l-1.7-1.1
					c-2.5-1.6-3-6-3.3-14.2c-0.1-3.3,1.3-6.3,3.7-7.8c2.2-1.4,5-1.5,7.6-0.2c3,1.5,4.3,1.3,4.3,1.3l0.7-0.2l0.5,0.3
					c1.6,0.6,6.9,2.7,7.3,6.4c0,0.1,1.3,16.8-0.3,19.9C1510,1305.5,1508.6,1306,1507,1306z"></path>
				<path id="SvgjsPath1050" class="st15" d="M1378.3,1438.7c-0.5,0-1,0-1.5-0.1c-4.1-0.6-8.3-3.9-11.2-8.7l-0.7-1.1
					c-3.4-5.5-6.6-10.7-0.7-15.9c1.4-1.2,2.6-2.6,3.6-3.8c1.8-2.1,3.4-3.9,5.6-4c1.2-0.2,2.3,0.3,3.4,1.3c0.6,0.5,1.2,1.1,1.8,1.7
					c2.3,2.4,4.9,5,9.5,5.4c6.6,0.4,9.4,1.5,10.4,3.7c0.3,0.8,0.7,2.4-0.8,4.3c-0.4,0.5-7.9,10.3-13,14.8
					C1382.7,1437.9,1380.6,1438.7,1378.3,1438.7z"></path>
				<path id="SvgjsPath1049" class="st15" d="M1360,1418.2c-0.9,0-1.8-0.2-2.6-0.5c-3-1.2-9.7-4.5-10.3-8.6c-0.1-0.9,0-2.7,2-4.3
					c4.5-3.5,4.9-4.4,4.4-7.7c-0.4-2.9,0.9-5.4,3.3-6.6c3-1.5,6.6-0.6,9.3,2.1c4.7,4.7,7.7,8.6,7.3,12.4c-0.3,2.5-1.7,3.5-2.7,4.1
					c-0.8,0.5-1.2,0.8-1.6,2.1c-0.7,2.6-2.6,4.9-5.3,6.1C1362.6,1417.9,1361.2,1418.2,1360,1418.2z"></path>
				<path id="SvgjsPath1048" class="st15" d="M1396.1,1418.1c-3.5,0-8.1-1.6-10-2.6c-4.3-2.1-18.7-15.8-22.1-22.2
					c-3.5-6.5-5.7-13.6,2.2-21c5.2-4.8,12.4-5.6,17.1-4.5c2.8,0.7,4.7,2.1,5.3,3.9c0.6,1.7,0.7,4.2,0.9,7.4c0.2,3.8,0.4,8,1.4,11.1
					c1.8,5.7,3.6,9.6,3.6,9.7l0.3,0.7l-0.1,0.6c0.1,0.3,0.5,1.9,3.5,4.3c4.7,3.8,4.6,6.5,3,9.4c-0.1,0.2-0.3,0.5-0.4,0.7
					c-0.3,0.6-0.9,1.5-2.2,2C1397.8,1418,1397,1418.1,1396.1,1418.1z"></path>
				<path id="SvgjsPath1047" class="st15" d="M1404,1417.1c-3,0-4.9-3.3-9.9-13.2c-5.8-11.3-8.4-19.6-8.4-26.8c0-5.5,2.1-8.6,3.9-10.3
					c1.9-1.8,4.3-2.8,6.8-2.5c3.7,0.3,12.9,3.6,17.3,29l0,0.1c0.2,1.2,1.6,11.4-0.1,16.7c-1.9,6-7.2,6.7-9,7
					C1404.5,1417,1404.3,1417.1,1404,1417.1z"></path>
			</g>
		</g>
	</g>
	<g id="SvgjsG1046" class="st14">
		<g id="SvgjsG1045">
			<g id="SvgjsG1044">
				<g id="SvgjsG1043">
					<path id="SvgjsPath1042" class="st15" d="M1183.3,1245.4v16c0,0,25.4,3.1,35-16c0,0,2.8-11.5,0-16.5s-6.6-2.1-13.4,4.2
						C1198.1,1239.5,1185.6,1244.7,1183.3,1245.4z"></path>
					<path id="SvgjsPath1041" class="st15" d="M1168.2,1224.2c0,0,9.6,8.7,11.8,9.4c2.1,0.7,13.2-5,18.3-7.2c5.2-2.2,4.9-10.4-1.2-14.2
						c-6.1-3.8-11.3-3.1-18.8,2.6C1170.8,1220.5,1166.3,1222.6,1168.2,1224.2z"></path>
					<path id="SvgjsPath1040" class="st15" d="M1157.4,1233.7c0,0,1.4,23.5,1.9,25.6c0.5,2.1,9.2,2.2,15.3,2.3s8.2-0.4,7.9-7.4
						c-0.4-6.9-0.8-16.1-2.2-18.1s-11.8-12-14-12.5C1164,1223.2,1158.2,1231.2,1157.4,1233.7z"></path>
					<path id="SvgjsPath1039" class="st15" d="M1149.4,1235.2c0,0,4.7,0.8,6.5,1.4c1.7,0.6,1.5,5.8,1.5,11.2c0,5.4-0.2,12.5-2.4,12.5
						c-2.1,0-26.3-4.7-42.8-22.2c-0.6-3.1,1.3-5.4,4.9-9.6s5.8-6,9.8-3.3C1130.9,1227.8,1136.8,1231.4,1149.4,1235.2z"></path>
					<path id="SvgjsPath1038" class="st15" d="M1097.4,1222.5c0,0,5.6,8.6,8.3,9.7c2.7,1.1,5.8,1.4,10.3-3.9c4.5-5.3,5.8-6.6,3.1-10.7
						c-2.7-4.1-13.8-16.6-14.1-28.1c0.6-1.6-1.9-2.8-6.7-3.1c-4.9-0.3-15.5,0.8-11.4,13.3C1091,1212.3,1093.6,1215.6,1097.4,1222.5z
						"></path>
					<path id="SvgjsPath1037" class="st15" d="M1082.5,1133.4c0,0-0.2,17.7,0,21c0.2,3.3,5.6-0.5,10.2-3c4.5-2.5,12.5-4.2,14.7-4.2
						c2.2,0,1.1-5.3,1.1-7.2s-14-5.3-19.1-6.6C1084.2,1132.2,1082.5,1130.5,1082.5,1133.4z"></path>
					<path id="SvgjsPath1036" class="st15" d="M1083.5,1111.3c0,0-1.2,14.7-1,16.2s19,8.6,27.7,11.3c6,1.4,7.2,1.1,11.9-3
						s9.1-7.5,5.5-10.4c-3.6-2.8-31.5-21.2-35.9-23.2C1087.2,1100.2,1084.1,1102.3,1083.5,1111.3z"></path>
					<path id="SvgjsPath1035" class="st15" d="M1094.6,1089.4c0,0-4.7,6.4-4.2,8.5c0.5,2,3,3,12.9,8.9c10,6,21.5,13.3,25.6,15.2
						c4,1.9,5.3,0.9,7.3-2.7c2-3.6,4.2-18.7,4.5-33.1c-0.2-3.8-5.6-7.2-9.1-1.6c-3.4,5.6-12.7,17.4-16.1,19.1s-0.7-8.5-0.7-14.4
						c0-6,2.2-16,0-16.6C1112.6,1072.1,1107.1,1075,1094.6,1089.4z"></path>
					<path id="SvgjsPath1034" class="st15" d="M1087.4,1157.8c0,0-2.6,11.1-1.4,18.3c1.2,7.2,1.5,9.6,8,9.3s12.2,1.4,21.5,7.7
						c9.3,6.3,11.1,6.6,13.3,2.5c2.3-4.1,2.9-8.1-3.4-9.1c-6.3-1.1-6-5.8-2.5-6.4c3.4-0.6,20.4-0.9,26.7-0.9c6.3,0,8.5-2.8,9.4-9.9
						c0.9-7.1,6-11.6,2.7-14.6c-3.3-3-25.3-8.2-41.1-7.1C1104.8,1148.7,1089.6,1152.9,1087.4,1157.8z"></path>
					<path id="SvgjsPath1033" class="st15" d="M1037,1178.6c0,0-1.6,22.1,0,28.7c1.6,6.6,3.6,5.3,4.7,8.8s1.1,5,3.4,5.2
						c2.4,0.2,11.3-15.1,23.1-23c11.8-7.9,16.9-8.3,16.5-15.1s1.5-21.8-2.3-22.9s-19.3-0.8-27.2,3.1S1038.6,1175.3,1037,1178.6z"></path>
					<path id="SvgjsPath1032" class="st15" d="M1052.7,1235.4c0,0,4.7-3,10.5-6.1c5.8-3.1,13.8-8,14.7-12.5c0.9-4.5-5-11-6.7-12.9
						c-1.7-1.9-7.2,1.7-14.7,10.5c-7.5,8.8-19,23.7-25.1,37.6s-9.1,18.3-5,21c4.1,2.7,11.1,0.6,16.3-3.3c5.2-3.9,9.9-7.4,9.4-18.3
						C1051.6,1240.4,1050.8,1236.5,1052.7,1235.4z"></path>
					<path id="SvgjsPath1031" class="st15" d="M1012.6,1199.3c0,0-7.7,13.6-7.8,23.2c-0.2,9.6,1.3,10.8,6.6,23.5
						c5.3,12.7,7.4,17.2,9.4,18c2,0.8,5-1.4,8.3-10.2c3.3-8.8,8.2-18.8,11.4-23.1s0.3-8-2.8-14.4s-2.4-21.8-2.5-28.4
						c-0.2-6.6-4-6-7.5-4.1C1024.5,1185.7,1018.2,1190.5,1012.6,1199.3z"></path>
					<path id="SvgjsPath1030" class="st15" d="M991.6,1235.8c0,0-7.4,9.3-7.8,16.5c-0.5,7.2,3.6,20.5,4.7,30.4
						c1.1,9.9,3.3,16.3,8.2,21.6s13.3,6.7,17.6,8.6s4.9-4.9,4.7-9.4s-0.9-16,1.1-23.5c2-7.5,3.9-10.2-0.9-14.9s-12.2-21.5-13.6-25.2
						C1004,1236.2,1002.1,1222.2,991.6,1235.8z"></path>
					<path id="SvgjsPath1029" class="st15" d="M984.5,1304.4c0,0-7.1,16.2-5.3,22.3s7.1,8.8,14.6,17.6c7.5,8.8,16.3,15.2,18,18.5
						c1.7,3.3,0.5,7.2,0,9.9c-0.5,2.7-1.9,6.6,6.9,13.5c8.8,6.9,20.5,9.4,24.1,11.6c3.6,2.2,2.7,6.3,8.3,12.7
						c5.6,6.4,20.5,6.7,29,6.4c8.5-0.3,6.1-2.8,10.7,4.5c4.5,7.4,6.7,10.3,16.2,9.1c9.4-1.3,11.1-6.3,14.9-12.1
						c3.8-5.8-1.4-6.6-9.7-7.4s-11-3.6-19.8-5.3c-8.8-1.7-19.8-5.5-32.8-13.6c-13-8.2-25.6-22.9-32.3-40.6
						c-6.7-17.7-6.1-29.3-11.1-32.6s-16.8-9.7-22.1-13.3S987.3,1301.7,984.5,1304.4z"></path>
					<path id="SvgjsPath1028" class="st15" d="M1035.8,1313.3c0,0,0.2-7.7-4.5-8.5c-4.7-0.8-10.8-0.9-10.2,7.7
						c0.6,8.6,5.2,38.7,24.5,61.8c10.2,11.9,19.1,20.3,33.9,26c6.4,2.4,9.7,2.8,7.8-1.3s-11-14.9-15.5-17.9c-4.5-3-1.7-5.2-3.3-11
						c-1.6-5.8-8.1-8.6-14-9.6c-5.9-0.9-6.8-3.3-7.1-10.2c-0.3-6.9-1.7-10.8-6.6-15.8C1035.8,1329.6,1036,1316,1035.8,1313.3z"></path>
					<path id="SvgjsPath1027" class="st15" d="M1026.7,1277.4c0,0-5.4,1.9-5.7,4.4c-0.3,2.5-1,16.6,0,18.5c1,1.9,7.3-0.8,9-1.4
						c1.7-0.6,6.4-3.9,8.2-5c1.7-1.1,2-7.2,2.2-12.2c0.2-5-3.8-7.8-7.8-5.8C1028.4,1277.9,1026.7,1277.4,1026.7,1277.4z"></path>
					<path id="SvgjsPath1026" class="st15" d="M1133.9,1417.4c0,0,7.7,10,12.7,14.4c5,4.4,11.6,0.3,15.4-5.8c3.8-6.1,6.6-9.9,1.9-14
						c-4.7-4.1-6.6-9.1-9.4-6.6s-6,7.2-12.7,7.7C1135,1413.7,1131.9,1414.8,1133.9,1417.4z"></path>
					<path id="SvgjsPath1025" class="st15" d="M1171.3,1412.9c0,0,12.5-5.2,7.8-8.8s-6-5.3-5.3-9.9c0.6-4.5-4.7-6.4-8.6-2.5
						c-3.9,3.9-6.9,7.5-6.6,10.4s3.1,1.8,4.2,5.9S1168.8,1414,1171.3,1412.9z"></path>
					<path id="SvgjsPath1024" class="st15" d="M1137.4,1398.4c0,0,0.5,2.5-4.4,6.5c-4.9,4-2.8,5.3-2,7.3s7.8,0.4,11.4-1.4
						c3.6-1.8,17.8-15.1,21.1-21.2c3.3-6.1,5.1-11.7-1.8-18.1c-6.8-6.4-17.4-4.7-18.5-1.5c-1.1,3.2-0.4,12.6-2.2,18.5
						C1139.3,1394.3,1137.4,1398.4,1137.4,1398.4z"></path>
					<path id="SvgjsPath1023" class="st15" d="M1118.1,1391c0,0-1.5,10.7,0,15.6c1.5,4.9,6,5.2,7.4,5.4c1.4,0.2,3.1-2.7,7.8-11.9
						s8.1-17.9,8.1-25.8c0-7.9-4.9-10.7-8.1-10.5S1122.2,1367.6,1118.1,1391z"></path>
				</g>
			</g>
		</g>
		<g id="SvgjsG1022">
			<g id="SvgjsG1021">
				<path id="SvgjsPath1020" class="st15" d="M1183,1263.8l-2.1-0.3v-19.9l1.7-0.5c2.1-0.6,14.2-5.7,20.7-11.7c5.1-4.8,8.8-8,12.4-7.3
					c1.9,0.3,3.4,1.5,4.6,3.6c3.2,5.6,0.6,16.9,0.1,18.7c-7.9,15.6-25,17.5-33.1,17.5C1184.9,1264,1183.2,1263.8,1183,1263.8z"></path>
				<path id="SvgjsPath1019" class="st15" d="M1179.2,1235.9c-2.2-0.8-8.8-6.5-12.6-9.9c-0.8-0.7-1.3-1.7-1.2-2.8
					c0.1-2.2,2.2-3.7,6.4-6.6c1.5-1,3.2-2.2,5.1-3.7c8.3-6.2,14.5-7,21.5-2.7c3.9,2.4,6.3,6.7,6,11c-0.2,3.4-2.1,6.2-5.1,7.4
					c-1.4,0.6-3.1,1.4-5,2.3c-7.9,3.6-11.6,5.2-13.8,5.2C1179.9,1236.1,1179.5,1236,1179.2,1235.9z"></path>
				<path id="SvgjsPath1018" class="st15" d="M1174.5,1264c-11.8-0.1-16.8-0.7-17.6-4.1c-0.5-2.2-1.7-22-1.9-26l0-0.4l0.1-0.4
					c0.6-2,6.9-12.8,11.6-11.7c3.3,0.7,14.2,11.7,15.4,13.4c1.6,2.2,2.1,7.7,2.7,19.4c0.1,2.7,0,5.8-1.8,7.8
					c-1.7,1.8-4.4,2.1-7.6,2.1C1175.1,1264,1174.8,1264,1174.5,1264z"></path>
				<path id="SvgjsPath1017" class="st15" d="M1110.5,1239.6l-0.5-0.5l-0.1-0.7c-0.8-4.3,1.8-7.4,5.5-11.6c3-3.5,6.8-7.9,12.9-3.7
					c3,2,8.7,5.9,21.7,9.8c0.9,0.2,4.9,0.9,6.6,1.5c3.2,1.1,3.2,5.6,3.2,11.8v1.6c0,8.1-0.4,14.9-4.7,14.9
					C1152.3,1262.6,1127.5,1257.8,1110.5,1239.6z"></path>
				<path id="SvgjsPath1016" class="st15" d="M1104.8,1234.4c-3-1.2-7.6-7.8-9.4-10.6l-0.1-0.2c-0.7-1.4-1.4-2.6-2.1-3.8
					c-2.8-4.9-5.2-9.1-8.6-19.4c-1.6-5.1-1.3-9.1,1-12.1c3.5-4.5,10.1-4.6,12.9-4.4c4.6,0.3,7.4,1.3,8.5,3.2
					c0.5,0.8,0.7,1.7,0.5,2.6c0.4,8.6,7.7,18.3,11.6,23.5c0.9,1.2,1.7,2.2,2.2,3c3.5,5.5,1.4,8-2.9,13.1l-0.4,0.5
					c-3.1,3.6-6,5.4-9.2,5.4C1107.4,1235.3,1106.2,1235,1104.8,1234.4z"></path>
				<path id="SvgjsPath1015" class="st15" d="M1081.9,1157.7c-0.6-0.3-1.7-1.2-1.8-3.1c-0.2-3.3,0-20.4,0-21.1l0,0c0-0.7,0-2.4,1.4-3.4
					c1.5-1.1,3.2-0.5,5,0.1c0.9,0.3,2,0.7,3.4,1c19.5,4.7,21,6.5,21,8.9c0,0.4,0,0.9,0.1,1.4c0.2,2.5,0.5,5.4-1,7.1
					c-0.6,0.7-1.5,1.1-2.5,1.1c-1.7,0-9.2,1.5-13.6,3.9l-2.1,1.2c-3.2,1.8-5.9,3.4-8,3.4C1083.1,1158.1,1082.5,1158,1081.9,1157.7z"></path>
				<path id="SvgjsPath1014" class="st15" d="M1109.4,1141.1c-1.2-0.4-28.6-8.9-29.3-13.2c-0.2-1.5,0.5-11.1,1-16.7l0,0
					c0.5-6,1.9-9.6,4.6-11.2c1.9-1.1,4.3-1.1,6.9,0.1c4.5,2.1,32.4,20.4,36.4,23.5c1.8,1.4,2.2,3,2.2,4.1c0.1,3.3-3.1,6.1-6.9,9.3
					l-0.7,0.6c-3.5,3-5.6,4.3-8.7,4.3C1113.4,1141.9,1111.6,1141.6,1109.4,1141.1z"></path>
				<path id="SvgjsPath1013" class="st15" d="M1127.8,1124.2c-2.8-1.3-8.8-5-15.8-9.3c-3.3-2-6.7-4.1-10-6c-2.3-1.4-4.1-2.4-5.7-3.4
					c-5.8-3.4-7.8-4.5-8.4-7.1c-0.5-2.1,1.1-5.6,4.6-10.4l0.1-0.2c14.7-16.9,19.8-18.1,22.7-17.3c3.4,1,2.9,5.4,2.2,12.2
					c-0.2,2.4-0.5,4.8-0.5,6.7c0,2-0.3,4.4-0.6,6.8c-0.1,1.2-0.3,2.8-0.4,4.1c3.7-3.5,10.3-11.9,13.3-16.8c2-3.3,5.1-4.7,8.1-3.9
					c3,0.8,5.3,3.6,5.4,6.8c-0.3,14.7-2.5,30-4.9,34.2c-1.7,3-3.4,4.8-6.1,4.8C1130.9,1125.3,1129.5,1124.9,1127.8,1124.2z"></path>
				<path id="SvgjsPath1012" class="st15" d="M1114.2,1195c-8.8-5.9-13.9-7.3-18.8-7.3c-0.8,0-1.7,0.1-2.4,0.1c-7.5,0-8.2-4.4-9.4-11.2
					c-1.3-7.6,1.3-18.8,1.4-19.3l0.2-0.4c2.9-6.5,20.3-10.5,35.2-11.6c16.3-1.2,38.9,4,42.9,7.7c3.2,2.9,1.6,6.6,0.2,9.9
					c-0.9,2-1.8,4.2-2.1,6.7c-0.8,6.2-2.8,12-11.8,12c-7.3,0-23.2,0.3-26.7,1.1c0,0.2,0.7,1.1,3,1.5c3.2,0.5,5.4,1.9,6.4,3.9
					c1.1,2.3,0.7,5.1-1.3,8.7c-0.9,1.6-2.1,3.3-4.2,3.8c-0.4,0.1-0.8,0.1-1.2,0.1C1122.9,1200.6,1119.7,1198.7,1114.2,1195z"></path>
				<path id="SvgjsPath1011" class="st15" d="M1045,1223.6c-3.6-0.3-4.4-2.8-5.1-5.3l-0.4-1.5c-0.3-0.9-0.6-1.2-1.2-1.8
					c-1.4-1.4-2.6-3-3.6-7.2c-1.6-6.9-0.1-28.5-0.1-29.4l0.2-0.9c1.9-3.9,11.1-12.2,19.3-16.3c8.5-4.3,24.7-4.5,28.9-3.3
					c4.5,1.3,4.3,8.9,4,17.7c-0.1,2.8-0.2,5.4,0,7.3c0.4,6.4-3.3,8.6-9.6,12.3c-2.2,1.3-4.8,2.8-7.9,4.9
					c-6.7,4.5-12.5,11.5-16.7,16.6c-3.9,4.7-5.6,6.8-7.7,6.8C1045.2,1223.6,1045.1,1223.6,1045,1223.6z"></path>
				<path id="SvgjsPath1010" class="st15" d="M1025.1,1275c-5.1-3.4-2.9-8.3,1.5-18.1c0.8-1.7,1.7-3.7,2.6-5.9
					c6.9-15.7,20.1-31.9,25.5-38.2c6.7-7.8,11.8-11.8,15.3-11.8c1.2-0.1,2.3,0.4,3.2,1.4c3.6,3.9,8.2,9.8,7.2,14.8
					c-0.9,4.3-5.8,8.7-15.9,14.1c-5.2,2.8-9.6,5.6-10.3,6c-0.3,0.8-0.2,4.1,0,7.5c0.1,1.8,0.2,4,0.3,6.5
					c0.5,12.1-4.9,16.3-10.3,20.3c-3.7,2.8-8.7,5-13.2,5C1028.8,1276.6,1026.8,1276.1,1025.1,1275z"></path>
				<path id="SvgjsPath1009" class="st15" d="M1019.9,1266.3c-3-1.2-4.8-5.3-10.7-19.3c-0.9-2.1-1.7-3.9-2.4-5.5
					c-3.4-7.9-4.5-10.5-4.4-19c0.2-10.1,7.8-23.8,8.1-24.3l0.1-0.1c5.4-8.4,11.8-13.9,15.9-16.2c3.2-1.7,5.9-2.1,7.9-0.9
					c2,1.1,3,3.5,3.1,7c0,1.3,0,2.8,0,4.6c0,7.2,0,18.1,2.3,22.8c0.5,1,1,1.9,1.4,2.8c2.6,5,4.8,9.3,1.1,14.1
					c-3,3.8-7.7,13.5-11.1,22.4c-2.4,6.4-4.9,10.2-7.7,11.4c-0.7,0.3-1.4,0.4-2.1,0.4C1021,1266.6,1020.4,1266.5,1019.9,1266.3z"></path>
				<path id="SvgjsPath1008" class="st15" d="M1013.2,1315.2c-1.1-0.5-2.4-0.9-3.9-1.4c-4.7-1.5-10.4-3.4-14.4-7.8
					c-5-5.5-7.6-12.2-8.8-23c-0.4-3.9-1.4-8.5-2.3-13c-1.4-6.8-2.7-13.3-2.4-17.9c0.5-7.7,7.8-17.1,8.3-17.8c4-5.2,7.3-7.3,10.5-6.7
					c4.3,0.8,5.8,6.1,6.9,9.6c0.2,0.7,0.4,1.3,0.5,1.7c1.6,4.3,8.8,20.3,13.1,24.4c5.2,5,4,8.9,2.4,14.2c-0.3,0.9-0.6,1.9-0.9,3
					c-1.7,6.3-1.3,15.9-1.1,21l0.1,1.8c0.2,6-0.9,9.9-3.2,11.4c-0.5,0.3-1.4,0.8-2.5,0.8C1014.8,1315.7,1014,1315.5,1013.2,1315.2z"></path>
				<path id="SvgjsPath1007" class="st15" d="M1088.8,1422.6l-1.1-1.7c-0.7-1.2-1.4-2.3-1.3-2.4c-0.4,0.1-0.7,0.1-1.2,0.1
					c-1.1,0.2-2.7,0.4-5,0.5c-15.8,0.6-26.2-1.8-30.9-7.2c-3.1-3.5-4.4-6.5-5.4-8.6c-0.9-2-1.3-2.9-2.4-3.6c-1-0.6-3-1.3-5.4-2.2
					c-5.4-2-12.8-4.7-19-9.6c-8.6-6.8-8.6-11.5-7.8-15.8l0.3-1.4c0.5-2.3,1-5,0-7c-0.7-1.3-3.4-3.8-6.2-6.4
					c-3.4-3.1-7.6-7.1-11.5-11.6c-2.7-3.1-5-5.4-7.1-7.5c-3.7-3.6-6.7-6.5-7.9-11c-1.9-6.7,4.7-22.1,5.4-23.9l0.6-0.8
					c4.2-4,7.2-2.7,12.5,0.9c2.8,1.9,7.4,4.6,11.9,7.2c4,2.3,7.8,4.5,10.2,6.1c3.6,2.4,4.7,7.2,6.4,14.4c1.2,5.2,2.7,11.7,5.6,19.3
					c6.2,16.3,17.9,31,31.3,39.5c10.9,6.8,21.6,11.3,32,13.3c4.1,0.8,7,1.9,9.5,2.8c3.1,1.1,5.7,2.1,10,2.5
					c6.7,0.6,11.1,1.3,12.7,4.4c1.3,2.8-0.5,5.6-1.2,6.6c-0.5,0.8-0.9,1.5-1.4,2.2c-3,5-5.9,9.7-15.2,10.9c-1.5,0.2-2.8,0.3-4,0.3
					C1095.7,1433.1,1092.9,1429.2,1088.8,1422.6z"></path>
				<path id="SvgjsPath1006" class="st15" d="M1078.5,1402.5c-15-5.8-24.1-14.2-34.8-26.7c-17.7-21.1-24-49.6-25-63.2
					c-0.3-3.8,0.6-6.6,2.6-8.4c2.8-2.6,7-2.3,10.4-1.7c5.3,0.9,6.6,7.1,6.5,10.7c0,0.4,0,1,0.1,1.7c0.2,3.9,0.6,14.4,4.1,18
					c5.1,5.2,6.9,9.6,7.3,17.4c0.3,6.7,1.1,7.3,5.1,8c4.1,0.6,13.7,3,15.9,11.3c0.7,2.5,0.6,4.5,0.6,5.9c0,2.1,0,2.6,1.7,3.7
					c5,3.3,14.3,14.4,16.4,18.9c1,2.2,1,4-0.1,5.2c-0.8,0.8-1.7,1.2-3,1.2C1084.3,1404.5,1081.8,1403.8,1078.5,1402.5z"></path>
				<path id="SvgjsPath1005" class="st15" d="M1018.9,1301.4c-1.6-3-0.3-19.7-0.3-19.9c0.4-3.7,5.7-5.8,7.3-6.4l0.5-0.3l0.7,0.2
					c0,0,1.3,0.1,4.3-1.3c2.6-1.3,5.4-1.2,7.6,0.2c2.4,1.5,3.8,4.5,3.7,7.8c-0.3,8.2-0.8,12.6-3.3,14.2l-1.7,1.1
					c-3,2-5.5,3.6-6.9,4.1l-0.6,0.2c-2.2,0.9-5.2,2-7.6,2C1021,1303.3,1019.7,1302.8,1018.9,1301.4z"></path>
				<path id="SvgjsPath1004" class="st15" d="M1145.1,1433.6c-5.1-4.5-12.6-14.3-13-14.8c-1.5-1.9-1.2-3.6-0.8-4.3
					c1-2.2,3.8-3.2,10.4-3.7c4.6-0.3,7.2-3,9.5-5.4c0.6-0.6,1.2-1.2,1.8-1.7c1-0.9,2.2-1.5,3.4-1.3c2.2,0.1,3.8,1.9,5.6,4
					c1,1.2,2.2,2.6,3.6,3.8c5.9,5.1,2.7,10.3-0.7,15.9l-0.7,1.1c-3,4.8-7.1,8-11.2,8.7c-0.5,0.1-1,0.1-1.5,0.1
					C1149.1,1436.1,1146.9,1435.2,1145.1,1433.6z"></path>
				<path id="SvgjsPath1003" class="st15" d="M1165.8,1414.7c-2.7-1.2-4.6-3.4-5.3-6.1c-0.4-1.3-0.8-1.6-1.6-2.1c-1-0.6-2.5-1.7-2.7-4.1
					c-0.4-3.8,2.6-7.7,7.3-12.4c2.7-2.7,6.4-3.6,9.3-2.1c2.4,1.2,3.7,3.8,3.3,6.6c-0.4,3.2-0.1,4.2,4.4,7.7c2,1.5,2.1,3.3,2,4.3
					c-0.5,4.1-7.3,7.4-10.3,8.6c-0.8,0.4-1.7,0.5-2.6,0.5C1168.4,1415.6,1167.1,1415.3,1165.8,1414.7z"></path>
				<path id="SvgjsPath1002" class="st15" d="M1131.1,1415.1c-1.3-0.5-1.9-1.4-2.2-2c-0.1-0.2-0.2-0.5-0.4-0.7c-1.6-2.9-1.7-5.6,3-9.4
					c3-2.4,3.4-4,3.5-4.3l-0.1-0.6l0.3-0.7c0,0,1.8-4,3.6-9.7c1-3,1.2-7.3,1.4-11.1c0.2-3.2,0.3-5.7,0.9-7.4
					c0.6-1.8,2.5-3.2,5.3-3.9c4.7-1.1,11.9-0.3,17.1,4.5c7.9,7.4,5.8,14.4,2.2,21c-3.4,6.4-17.9,20-22.1,22.2c-2,1-6.5,2.6-10,2.6
					C1132.6,1415.5,1131.8,1415.4,1131.1,1415.1z"></path>
				<path id="SvgjsPath1001" class="st15" d="M1124.8,1414.3c-1.8-0.2-7.1-1-9-7c-1.6-5.3-0.2-15.5-0.1-16.7l0-0.1
					c4.5-25.4,13.6-28.7,17.3-29c2.4-0.3,4.9,0.8,6.8,2.5c1.8,1.7,3.9,4.8,3.9,10.3c0,7.2-2.6,15.5-8.4,26.8
					c-5,9.8-6.8,13.2-9.9,13.2C1125.3,1414.4,1125.1,1414.4,1124.8,1414.3z"></path>
			</g>
		</g>
	</g>
</g>
<path id="SvgjsPath1000" class="st9" d="M1659.3,571.3L1659.3,571.3c0.1,19,1.4,539.1,1.4,539.2c0,233.8-175.6,423.9-391.4,423.9
	c-215.8,0-391.4-190.2-391.4-423.9c0,0,2.6-520.2,2.7-539.2C896.6,571.3,1643.3,571.3,1659.3,571.3L1659.3,571.3z"></path>
</svg><style>@media (prefers-color-scheme: light) { :root { filter: none; } }
</style></svg>